<svg xmlns="http://www.w3.org/2000/svg" xmlns:xlink="http://www.w3.org/1999/xlink" width="170" zoomAndPan="magnify" viewBox="0 0 127.5 30.000001" height="40" preserveAspectRatio="xMidYMid meet" version="1.0"><defs><g/><clipPath id="4ab211b2c1"><path d="M 17 10 L 30.847656 10 L 30.847656 19 L 17 19 Z M 17 10 " clip-rule="nonzero"/></clipPath><clipPath id="beccf3bb23"><path d="M 1.816406 0 L 30.847656 0 L 30.847656 29.03125 L 1.816406 29.03125 Z M 1.816406 0 " clip-rule="nonzero"/></clipPath></defs><path fill="#00a7a7" d="M 19.996094 24.453125 C 21.75 26.207031 24.578125 26.226562 26.308594 24.496094 C 28.042969 22.761719 28.023438 19.9375 26.269531 18.179688 L 23.957031 15.867188 C 22.199219 14.113281 19.375 14.09375 17.640625 15.828125 C 15.910156 17.558594 15.929688 20.386719 17.683594 22.140625 Z M 19.996094 24.453125 " fill-opacity="1" fill-rule="nonzero"/><path fill="#a3a3cd" d="M 14.976562 22.140625 C 16.734375 20.386719 16.753906 17.558594 15.019531 15.828125 C 13.289062 14.09375 10.460938 14.113281 8.707031 15.867188 L 6.394531 18.179688 C 4.636719 19.9375 4.621094 22.761719 6.351562 24.496094 C 8.082031 26.226562 10.910156 26.207031 12.667969 24.453125 Z M 14.976562 22.140625 " fill-opacity="1" fill-rule="nonzero"/><path fill="#a1d3a2" d="M 26.269531 10.851562 C 28.023438 9.097656 28.042969 6.269531 26.308594 4.535156 C 24.578125 2.804688 21.75 2.824219 19.996094 4.578125 L 17.683594 6.890625 C 15.929688 8.644531 15.910156 11.472656 17.640625 13.207031 C 19.371094 14.9375 22.199219 14.917969 23.957031 13.164062 Z M 26.269531 10.851562 " fill-opacity="1" fill-rule="nonzero"/><path fill="#fcba7f" d="M 11.894531 8.066406 C 11.894531 10.515625 13.882812 12.5 16.332031 12.5 C 18.78125 12.5 20.765625 10.515625 20.765625 8.066406 L 20.765625 4.839844 C 20.765625 2.390625 18.78125 0.402344 16.332031 0.402344 C 13.882812 0.402344 11.894531 2.390625 11.894531 4.839844 Z M 11.894531 8.066406 " fill-opacity="1" fill-rule="nonzero"/><path fill="#fcba7f" d="M 20.765625 4.839844 L 20.765625 8.066406 C 20.765625 10.21875 19.234375 12.011719 17.203125 12.414062 C 16.046875 10.695312 16.234375 8.339844 17.757812 6.820312 L 20.035156 4.535156 C 20.238281 4.335938 20.457031 4.15625 20.683594 4 C 20.738281 4.269531 20.765625 4.550781 20.765625 4.839844 Z M 20.765625 4.839844 " fill-opacity="1" fill-rule="nonzero"/><path fill="#39c2d8" d="M 11.894531 24.195312 C 11.894531 26.644531 13.882812 28.628906 16.332031 28.628906 C 18.78125 28.628906 20.765625 26.644531 20.765625 24.195312 L 20.765625 20.96875 C 20.765625 18.519531 18.78125 16.53125 16.332031 16.53125 C 13.882812 16.53125 11.894531 18.519531 11.894531 20.96875 Z M 11.894531 24.195312 " fill-opacity="1" fill-rule="nonzero"/><path fill="#f37e98" d="M 10.132812 18.953125 C 12.664062 18.953125 14.71875 16.964844 14.71875 14.515625 C 14.71875 12.066406 12.664062 10.082031 10.132812 10.082031 L 6.800781 10.082031 C 4.269531 10.082031 2.21875 12.066406 2.21875 14.515625 C 2.21875 16.964844 4.269531 18.953125 6.800781 18.953125 Z M 10.132812 18.953125 " fill-opacity="1" fill-rule="nonzero"/><g clip-path="url(#4ab211b2c1)"><path fill="#52bfa1" d="M 25.859375 18.953125 C 28.390625 18.953125 30.445312 16.964844 30.445312 14.515625 C 30.445312 12.066406 28.390625 10.082031 25.859375 10.082031 L 22.527344 10.082031 C 19.996094 10.082031 17.945312 12.066406 17.945312 14.515625 C 17.945312 16.964844 19.996094 18.953125 22.527344 18.953125 Z M 25.859375 18.953125 " fill-opacity="1" fill-rule="nonzero"/></g><path fill="#f15b6c" d="M 8.769531 13.226562 C 10.546875 15.003906 13.390625 15.039062 15.121094 13.304688 C 16.851562 11.574219 16.816406 8.730469 15.042969 6.953125 L 12.703125 4.617188 C 10.925781 2.839844 8.082031 2.804688 6.351562 4.535156 C 4.617188 6.269531 4.65625 9.113281 6.429688 10.890625 Z M 8.769531 13.226562 " fill-opacity="1" fill-rule="nonzero"/><path fill="#39c2d8" d="M 20.765625 20.96875 L 20.765625 24.195312 C 20.765625 24.480469 20.738281 24.761719 20.683594 25.03125 C 20.457031 24.875 20.238281 24.699219 20.035156 24.496094 L 17.757812 22.214844 C 16.234375 20.695312 16.046875 18.339844 17.203125 16.617188 C 19.234375 17.019531 20.765625 18.816406 20.765625 20.96875 Z M 20.765625 20.96875 " fill-opacity="1" fill-rule="nonzero"/><g clip-path="url(#beccf3bb23)"><path fill="#1f212b" d="M 30.859375 14.523438 C 30.859375 12.390625 29.46875 10.53125 27.476562 9.910156 C 28.441406 8.058594 28.113281 5.757812 26.605469 4.253906 C 25.101562 2.746094 22.800781 2.417969 20.949219 3.382812 C 20.324219 1.390625 18.46875 0 16.335938 0 C 14.207031 0 12.347656 1.390625 11.722656 3.382812 C 9.871094 2.417969 7.574219 2.746094 6.066406 4.253906 C 4.558594 5.757812 4.230469 8.058594 5.199219 9.910156 C 3.207031 10.535156 1.8125 12.390625 1.8125 14.523438 C 1.8125 16.652344 3.207031 18.511719 5.199219 19.136719 C 4.230469 20.984375 4.558594 23.285156 6.066406 24.792969 C 7.574219 26.296875 9.871094 26.628906 11.722656 25.660156 C 12.347656 27.652344 14.207031 29.046875 16.335938 29.046875 C 18.46875 29.046875 20.328125 27.652344 20.949219 25.660156 C 22.800781 26.625 25.097656 26.296875 26.605469 24.792969 C 28.113281 23.285156 28.441406 20.984375 27.476562 19.136719 C 29.46875 18.511719 30.859375 16.652344 30.859375 14.523438 Z M 21.167969 8.125 L 21.167969 4.769531 C 21.167969 4.582031 21.152344 4.394531 21.128906 4.210938 C 22.703125 3.273438 24.726562 3.511719 26.035156 4.820312 C 27.34375 6.128906 27.582031 8.148438 26.65625 9.71875 C 26.457031 9.695312 26.253906 9.679688 26.054688 9.675781 L 22.535156 9.679688 C 21.917969 9.679688 21.328125 9.792969 20.78125 9.992188 C 21.035156 9.410156 21.167969 8.777344 21.167969 8.125 Z M 19.441406 14.304688 C 18.9375 14.148438 18.472656 13.902344 18.050781 13.574219 C 18.148438 13.152344 18.304688 12.753906 18.515625 12.382812 C 18.964844 12.160156 19.382812 11.863281 19.75 11.503906 C 20.039062 11.214844 20.285156 10.894531 20.488281 10.554688 C 21.105469 10.253906 21.796875 10.082031 22.535156 10.082031 L 26.054688 10.082031 C 26.1875 10.082031 26.320312 10.089844 26.457031 10.097656 C 26.445312 10.171875 26.449219 10.25 26.480469 10.320312 C 26.511719 10.398438 26.566406 10.460938 26.636719 10.503906 C 26.554688 10.601562 26.46875 10.699219 26.378906 10.789062 L 23.957031 13.210938 C 23.445312 13.722656 22.828125 14.09375 22.152344 14.304688 C 21.269531 14.050781 20.324219 14.050781 19.441406 14.304688 Z M 20.800781 14.515625 C 20.800781 14.515625 20.796875 14.515625 20.796875 14.515625 C 20.792969 14.515625 20.792969 14.515625 20.792969 14.515625 C 20.796875 14.515625 20.796875 14.515625 20.800781 14.515625 Z M 18.859375 14.519531 C 18.550781 14.652344 18.253906 14.816406 17.976562 15.015625 C 17.957031 14.851562 17.945312 14.683594 17.945312 14.515625 C 17.945312 14.347656 17.957031 14.183594 17.976562 14.019531 C 18.253906 14.214844 18.546875 14.382812 18.859375 14.519531 Z M 16.335938 0.804688 C 18.269531 0.804688 19.9375 2.183594 20.296875 4.082031 C 20.320312 4.214844 20.410156 4.328125 20.539062 4.378906 C 20.605469 4.40625 20.675781 4.414062 20.746094 4.40625 C 20.757812 4.527344 20.765625 4.648438 20.765625 4.769531 L 20.765625 8.125 C 20.765625 8.878906 20.570312 9.597656 20.207031 10.238281 C 19.390625 10.660156 18.707031 11.296875 18.238281 12.070312 C 17.855469 12.25 17.445312 12.375 17.023438 12.441406 C 16.820312 12.121094 16.664062 11.78125 16.550781 11.429688 C 16.667969 11.003906 16.734375 10.5625 16.734375 10.105469 C 16.734375 9.632812 16.664062 9.167969 16.535156 8.722656 C 16.742188 8.054688 17.105469 7.425781 17.632812 6.898438 C 17.714844 6.816406 17.714844 6.691406 17.632812 6.613281 C 17.554688 6.53125 17.429688 6.53125 17.347656 6.613281 C 16.894531 7.066406 16.554688 7.589844 16.316406 8.144531 C 16.082031 7.617188 15.753906 7.125 15.332031 6.703125 L 12.933594 4.304688 C 12.777344 4.144531 12.605469 4.003906 12.429688 3.867188 C 12.867188 2.082031 14.476562 0.804688 16.335938 0.804688 Z M 16.332031 16.128906 C 16.167969 16.128906 16.007812 16.136719 15.847656 16.152344 C 15.695312 15.933594 15.523438 15.722656 15.328125 15.527344 C 15.242188 15.4375 15.148438 15.355469 15.050781 15.277344 C 15.09375 15.027344 15.121094 14.777344 15.121094 14.515625 C 15.121094 14.261719 15.09375 14.011719 15.054688 13.765625 C 15.148438 13.683594 15.242188 13.605469 15.332031 13.515625 C 15.527344 13.316406 15.703125 13.101562 15.859375 12.878906 C 16.015625 12.894531 16.171875 12.902344 16.332031 12.902344 C 16.5 12.902344 16.667969 12.894531 16.832031 12.875 C 16.984375 13.09375 17.15625 13.304688 17.351562 13.496094 C 17.433594 13.582031 17.523438 13.65625 17.613281 13.734375 C 17.570312 13.988281 17.539062 14.25 17.539062 14.515625 C 17.539062 14.78125 17.566406 15.042969 17.613281 15.300781 C 17.523438 15.375 17.433594 15.453125 17.351562 15.535156 C 17.15625 15.730469 16.988281 15.9375 16.832031 16.15625 C 16.667969 16.140625 16.5 16.128906 16.332031 16.128906 Z M 16.582031 16.546875 C 16.492188 16.699219 16.410156 16.859375 16.339844 17.023438 C 16.269531 16.859375 16.1875 16.699219 16.097656 16.542969 C 16.175781 16.539062 16.253906 16.53125 16.332031 16.53125 C 16.414062 16.53125 16.5 16.539062 16.582031 16.546875 Z M 14.953125 15.730469 C 14.984375 15.757812 15.015625 15.78125 15.042969 15.8125 C 15.171875 15.941406 15.289062 16.078125 15.398438 16.21875 C 15.167969 16.265625 14.945312 16.328125 14.726562 16.40625 C 14.820312 16.1875 14.894531 15.960938 14.953125 15.730469 Z M 14.722656 12.625 C 14.945312 12.703125 15.171875 12.765625 15.40625 12.8125 C 15.296875 12.957031 15.179688 13.097656 15.046875 13.230469 C 15.019531 13.257812 14.988281 13.28125 14.957031 13.308594 C 14.894531 13.074219 14.820312 12.847656 14.722656 12.625 Z M 16.105469 12.488281 C 16.195312 12.335938 16.273438 12.175781 16.34375 12.015625 C 16.414062 12.175781 16.492188 12.332031 16.582031 12.488281 C 16.5 12.492188 16.417969 12.5 16.332031 12.5 C 16.253906 12.5 16.179688 12.492188 16.105469 12.488281 Z M 17.636719 15.820312 C 17.660156 15.796875 17.6875 15.777344 17.710938 15.753906 C 17.773438 15.976562 17.847656 16.195312 17.9375 16.40625 C 17.726562 16.332031 17.507812 16.269531 17.285156 16.222656 C 17.394531 16.085938 17.507812 15.949219 17.636719 15.820312 Z M 17.714844 13.28125 C 17.6875 13.257812 17.660156 13.238281 17.632812 13.210938 C 17.507812 13.082031 17.390625 12.949219 17.28125 12.808594 C 17.507812 12.765625 17.726562 12.699219 17.941406 12.625 C 17.847656 12.835938 17.773438 13.058594 17.714844 13.28125 Z M 11.914062 4.402344 C 11.988281 4.414062 12.0625 4.410156 12.136719 4.378906 C 12.195312 4.355469 12.246094 4.316406 12.289062 4.269531 C 12.414062 4.367188 12.535156 4.472656 12.648438 4.589844 L 15.046875 6.988281 C 15.542969 7.484375 15.898438 8.082031 16.109375 8.734375 C 15.863281 9.617188 15.867188 10.558594 16.125 11.4375 C 16.015625 11.792969 15.859375 12.128906 15.664062 12.445312 C 15.230469 12.378906 14.816406 12.25 14.429688 12.070312 C 14.222656 11.722656 13.96875 11.394531 13.671875 11.097656 C 13.304688 10.738281 12.886719 10.445312 12.4375 10.21875 C 12.09375 9.59375 11.894531 8.882812 11.894531 8.125 L 11.894531 4.761719 C 11.894531 4.644531 11.902344 4.523438 11.914062 4.402344 Z M 14.71875 14.515625 C 14.71875 14.679688 14.707031 14.839844 14.6875 14.996094 C 14.421875 14.808594 14.136719 14.648438 13.839844 14.519531 C 14.136719 14.394531 14.417969 14.234375 14.691406 14.046875 C 14.707031 14.203125 14.71875 14.359375 14.71875 14.515625 Z M 6.636719 4.820312 C 7.941406 3.515625 9.960938 3.277344 11.53125 4.203125 C 11.507812 4.390625 11.492188 4.578125 11.492188 4.761719 L 11.492188 8.125 C 11.492188 8.78125 11.628906 9.40625 11.871094 9.976562 C 11.34375 9.785156 10.777344 9.679688 10.199219 9.679688 L 6.730469 9.675781 C 6.492188 9.675781 6.257812 9.699219 6.027344 9.730469 C 5.089844 8.160156 5.328125 6.132812 6.636719 4.820312 Z M 2.617188 14.523438 C 2.617188 12.660156 3.898438 11.046875 5.691406 10.613281 C 5.824219 10.789062 5.96875 10.960938 6.125 11.121094 C 6.164062 11.160156 6.214844 11.179688 6.269531 11.179688 C 6.320312 11.179688 6.371094 11.160156 6.410156 11.121094 C 6.488281 11.042969 6.488281 10.914062 6.410156 10.835938 C 6.296875 10.71875 6.1875 10.597656 6.085938 10.46875 C 6.132812 10.429688 6.171875 10.378906 6.195312 10.320312 C 6.222656 10.253906 6.230469 10.179688 6.21875 10.109375 C 6.386719 10.09375 6.558594 10.082031 6.730469 10.082031 L 10.199219 10.082031 C 10.890625 10.082031 11.554688 10.242188 12.160156 10.53125 C 12.628906 11.320312 13.320312 11.964844 14.152344 12.382812 C 14.367188 12.765625 14.523438 13.171875 14.617188 13.601562 C 14.199219 13.921875 13.738281 14.160156 13.253906 14.3125 C 12.824219 14.191406 12.378906 14.125 11.921875 14.125 C 11.46875 14.125 11.023438 14.191406 10.597656 14.3125 C 9.941406 14.105469 9.324219 13.746094 8.804688 13.230469 C 8.726562 13.152344 8.597656 13.152344 8.519531 13.230469 C 8.441406 13.308594 8.441406 13.4375 8.519531 13.515625 C 8.960938 13.953125 9.46875 14.285156 10.007812 14.519531 C 9.457031 14.757812 8.953125 15.09375 8.519531 15.527344 L 8.257812 15.785156 C 8.179688 15.863281 8.179688 15.992188 8.257812 16.070312 C 8.339844 16.148438 8.464844 16.148438 8.542969 16.070312 L 8.800781 15.8125 C 9.3125 15.304688 9.925781 14.941406 10.59375 14.730469 C 11.027344 14.855469 11.476562 14.917969 11.925781 14.917969 C 12.375 14.917969 12.820312 14.855469 13.253906 14.734375 C 13.746094 14.886719 14.203125 15.125 14.617188 15.441406 C 14.523438 15.867188 14.367188 16.269531 14.160156 16.640625 C 13.707031 16.867188 13.285156 17.160156 12.917969 17.519531 C 12.609375 17.820312 12.351562 18.15625 12.140625 18.511719 C 11.550781 18.789062 10.894531 18.953125 10.199219 18.953125 L 6.734375 18.953125 C 6.5625 18.953125 6.394531 18.9375 6.222656 18.917969 C 6.230469 18.855469 6.21875 18.785156 6.195312 18.722656 C 6.167969 18.664062 6.128906 18.613281 6.082031 18.570312 C 6.183594 18.445312 6.289062 18.324219 6.402344 18.210938 L 6.730469 17.886719 C 6.808594 17.808594 6.808594 17.679688 6.730469 17.601562 C 6.652344 17.523438 6.523438 17.523438 6.445312 17.601562 L 6.117188 17.925781 C 5.960938 18.082031 5.816406 18.253906 5.683594 18.433594 C 3.894531 17.992188 2.617188 16.382812 2.617188 14.523438 Z M 13.4375 17.59375 C 13.34375 17.691406 13.242188 17.785156 13.136719 17.871094 C 13.160156 17.851562 13.175781 17.828125 13.199219 17.808594 C 13.277344 17.730469 13.355469 17.664062 13.4375 17.59375 Z M 11.492188 20.851562 L 11.492188 24.175781 C 11.492188 24.398438 11.511719 24.617188 11.542969 24.832031 C 9.972656 25.769531 7.945312 25.53125 6.636719 24.222656 C 5.324219 22.910156 5.085938 20.871094 6.035156 19.296875 C 6.265625 19.332031 6.5 19.351562 6.734375 19.355469 L 10.199219 19.355469 C 10.78125 19.355469 11.339844 19.246094 11.859375 19.0625 C 11.621094 19.625 11.496094 20.230469 11.492188 20.851562 Z M 16.335938 28.238281 C 14.402344 28.238281 12.738281 26.859375 12.378906 24.960938 C 12.378906 24.957031 12.375 24.957031 12.375 24.953125 C 12.519531 24.839844 12.660156 24.722656 12.792969 24.589844 L 12.371094 24.9375 C 12.339844 24.816406 12.253906 24.714844 12.136719 24.664062 C 12.085938 24.644531 12.035156 24.632812 11.980469 24.632812 C 11.960938 24.632812 11.941406 24.640625 11.921875 24.640625 C 11.90625 24.488281 11.894531 24.332031 11.894531 24.175781 L 11.894531 20.851562 C 11.898438 20.132812 12.082031 19.441406 12.421875 18.824219 C 13.261719 18.402344 13.960938 17.753906 14.4375 16.957031 C 14.820312 16.777344 15.230469 16.652344 15.65625 16.589844 C 15.859375 16.910156 16.015625 17.253906 16.125 17.605469 C 15.996094 18.046875 15.929688 18.507812 15.929688 18.980469 C 15.929688 19.433594 15.992188 19.875 16.109375 20.300781 C 15.902344 20.941406 15.550781 21.546875 15.042969 22.054688 C 14.964844 22.132812 14.964844 22.261719 15.046875 22.339844 C 15.085938 22.378906 15.136719 22.398438 15.1875 22.398438 C 15.238281 22.398438 15.292969 22.378906 15.332031 22.339844 C 15.757812 21.910156 16.082031 21.417969 16.316406 20.890625 C 16.558594 21.457031 16.902344 21.980469 17.351562 22.429688 L 19.777344 24.851562 C 19.917969 24.992188 20.070312 25.121094 20.230469 25.246094 C 19.765625 26.996094 18.171875 28.238281 16.335938 28.238281 Z M 20.765625 24.167969 C 20.765625 24.328125 20.753906 24.480469 20.734375 24.636719 C 20.667969 24.628906 20.601562 24.636719 20.535156 24.664062 C 20.457031 24.695312 20.394531 24.757812 20.351562 24.828125 C 20.25 24.742188 20.152344 24.65625 20.058594 24.566406 L 17.636719 22.144531 C 17.117188 21.621094 16.746094 20.996094 16.53125 20.316406 C 16.792969 19.433594 16.796875 18.492188 16.546875 17.609375 C 16.660156 17.25 16.820312 16.910156 17.023438 16.589844 C 17.449219 16.65625 17.855469 16.78125 18.230469 16.957031 C 18.445312 17.308594 18.703125 17.640625 19.007812 17.9375 C 19.371094 18.289062 19.785156 18.582031 20.230469 18.804688 C 20.570312 19.414062 20.765625 20.113281 20.765625 20.851562 Z M 26.035156 24.222656 C 24.722656 25.535156 22.6875 25.769531 21.113281 24.824219 C 21.144531 24.609375 21.167969 24.390625 21.167969 24.171875 L 21.167969 20.851562 C 21.167969 20.214844 21.035156 19.605469 20.796875 19.046875 C 21.34375 19.246094 21.929688 19.355469 22.535156 19.355469 L 26.050781 19.355469 C 26.25 19.351562 26.449219 19.335938 26.648438 19.3125 C 27.585938 20.886719 27.347656 22.914062 26.035156 24.222656 Z M 27.0625 18.414062 C 26.941406 18.257812 26.8125 18.105469 26.671875 17.960938 L 26.105469 17.398438 C 26.027344 17.320312 25.902344 17.320312 25.820312 17.398438 C 25.742188 17.476562 25.742188 17.605469 25.820312 17.683594 L 26.386719 18.246094 C 26.476562 18.339844 26.5625 18.433594 26.644531 18.535156 C 26.574219 18.578125 26.511719 18.640625 26.480469 18.722656 C 26.449219 18.789062 26.445312 18.859375 26.453125 18.929688 C 26.320312 18.941406 26.183594 18.949219 26.046875 18.949219 L 22.535156 18.953125 C 21.820312 18.949219 21.132812 18.789062 20.507812 18.492188 C 20.039062 17.703125 19.34375 17.0625 18.511719 16.644531 C 18.300781 16.273438 18.144531 15.875 18.050781 15.457031 C 18.476562 15.128906 18.949219 14.882812 19.441406 14.726562 C 19.878906 14.851562 20.332031 14.917969 20.796875 14.917969 C 21.261719 14.917969 21.714844 14.851562 22.152344 14.726562 C 22.8125 14.9375 23.433594 15.296875 23.957031 15.820312 L 24.207031 16.070312 C 24.285156 16.148438 24.414062 16.148438 24.492188 16.070312 C 24.570312 15.992188 24.570312 15.863281 24.492188 15.785156 L 24.242188 15.535156 C 23.796875 15.089844 23.285156 14.753906 22.738281 14.515625 C 23.289062 14.277344 23.800781 13.933594 24.242188 13.496094 L 26.664062 11.074219 C 26.804688 10.933594 26.933594 10.785156 27.054688 10.628906 C 28.808594 11.089844 30.054688 12.683594 30.054688 14.519531 C 30.054688 16.355469 28.8125 17.949219 27.0625 18.414062 Z M 27.0625 18.414062 " fill-opacity="1" fill-rule="nonzero"/></g><path fill="#1f212b" d="M 25.097656 16.390625 C 25.019531 16.3125 24.890625 16.3125 24.8125 16.390625 C 24.734375 16.46875 24.734375 16.597656 24.8125 16.675781 L 25.058594 16.921875 C 25.097656 16.960938 25.148438 16.980469 25.203125 16.980469 C 25.253906 16.980469 25.304688 16.960938 25.34375 16.921875 C 25.421875 16.84375 25.421875 16.714844 25.34375 16.636719 Z M 7.257812 17.273438 C 7.308594 17.273438 7.359375 17.253906 7.402344 17.214844 L 7.804688 16.808594 C 7.882812 16.730469 7.882812 16.605469 7.804688 16.523438 C 7.726562 16.445312 7.597656 16.445312 7.519531 16.523438 L 7.117188 16.929688 C 7.035156 17.007812 7.035156 17.132812 7.117188 17.214844 C 7.15625 17.253906 7.207031 17.273438 7.257812 17.273438 Z M 7.257812 17.273438 " fill-opacity="1" fill-rule="nonzero"/><g fill="#ffffff" fill-opacity="1"><g transform="translate(33.869919, 23.275931)"><g><path d="M 6.125 -18.6875 L 6.125 -3.09375 L 14.53125 -3.09375 L 14.53125 0 L 2.421875 0 L 2.421875 -18.6875 Z M 6.125 -18.6875 "/></g></g></g><g fill="#ffffff" fill-opacity="1"><g transform="translate(49.008181, 23.275931)"><g><path d="M 8.203125 0.265625 C 6.816406 0.265625 5.597656 -0.015625 4.546875 -0.578125 C 3.503906 -1.148438 2.695312 -1.984375 2.125 -3.078125 C 1.550781 -4.171875 1.265625 -5.492188 1.265625 -7.046875 C 1.265625 -8.597656 1.550781 -9.921875 2.125 -11.015625 C 2.695312 -12.117188 3.503906 -12.953125 4.546875 -13.515625 C 5.597656 -14.085938 6.816406 -14.375 8.203125 -14.375 C 9.578125 -14.375 10.785156 -14.085938 11.828125 -13.515625 C 12.878906 -12.953125 13.691406 -12.117188 14.265625 -11.015625 C 14.847656 -9.921875 15.140625 -8.597656 15.140625 -7.046875 C 15.140625 -5.492188 14.847656 -4.171875 14.265625 -3.078125 C 13.691406 -1.984375 12.878906 -1.148438 11.828125 -0.578125 C 10.785156 -0.015625 9.578125 0.265625 8.203125 0.265625 Z M 8.203125 -2.734375 C 10.390625 -2.734375 11.484375 -4.171875 11.484375 -7.046875 C 11.484375 -8.535156 11.203125 -9.628906 10.640625 -10.328125 C 10.078125 -11.023438 9.265625 -11.375 8.203125 -11.375 C 6.003906 -11.375 4.90625 -9.929688 4.90625 -7.046875 C 4.90625 -4.171875 6.003906 -2.734375 8.203125 -2.734375 Z M 8.203125 -2.734375 "/></g></g></g><g fill="#ffffff" fill-opacity="1"><g transform="translate(65.39944, 23.275931)"><g><path d="M 8.21875 0.265625 C 6.851562 0.265625 5.644531 -0.015625 4.59375 -0.578125 C 3.550781 -1.148438 2.734375 -1.984375 2.140625 -3.078125 C 1.554688 -4.179688 1.265625 -5.503906 1.265625 -7.046875 C 1.265625 -8.597656 1.554688 -9.921875 2.140625 -11.015625 C 2.734375 -12.117188 3.550781 -12.953125 4.59375 -13.515625 C 5.632812 -14.085938 6.820312 -14.375 8.15625 -14.375 C 11.132812 -14.375 13.039062 -13.296875 13.875 -11.140625 L 11.4375 -9.390625 L 11.171875 -9.390625 C 10.878906 -10.054688 10.5 -10.550781 10.03125 -10.875 C 9.570312 -11.207031 8.945312 -11.375 8.15625 -11.375 C 7.132812 -11.375 6.335938 -11.019531 5.765625 -10.3125 C 5.191406 -9.601562 4.90625 -8.515625 4.90625 -7.046875 C 4.90625 -5.597656 5.195312 -4.515625 5.78125 -3.796875 C 6.363281 -3.085938 7.175781 -2.734375 8.21875 -2.734375 C 8.988281 -2.734375 9.640625 -2.941406 10.171875 -3.359375 C 10.703125 -3.773438 11.082031 -4.367188 11.3125 -5.140625 L 11.578125 -5.171875 L 14.109375 -3.78125 C 13.742188 -2.59375 13.078125 -1.617188 12.109375 -0.859375 C 11.148438 -0.109375 9.851562 0.265625 8.21875 0.265625 Z M 8.21875 0.265625 "/></g></g></g><g fill="#ffffff" fill-opacity="1"><g transform="translate(79.936812, 23.275931)"><g><path d="M 2.03125 0 L 2.03125 -19.765625 L 5.578125 -19.765625 L 5.578125 -8.796875 L 5.921875 -8.796875 L 10 -14.109375 L 13.59375 -14.109375 L 13.59375 -13.8125 L 8.796875 -7.625 L 14.125 -0.3125 L 14.125 0 L 10.390625 0 L 5.921875 -5.953125 L 5.578125 -5.953125 L 5.578125 0 Z M 2.03125 0 "/></g></g></g><g fill="#ffffff" fill-opacity="1"><g transform="translate(94.090613, 23.275931)"><g><path d="M 13.9375 -6.25 L 4.875 -6.25 C 4.976562 -5.019531 5.328125 -4.125 5.921875 -3.5625 C 6.515625 -3.007812 7.328125 -2.734375 8.359375 -2.734375 C 9.171875 -2.734375 9.828125 -2.882812 10.328125 -3.1875 C 10.835938 -3.488281 11.242188 -3.945312 11.546875 -4.5625 L 11.8125 -4.5625 L 14.171875 -3.0625 C 13.710938 -2.070312 13.015625 -1.269531 12.078125 -0.65625 C 11.148438 -0.0390625 9.910156 0.265625 8.359375 0.265625 C 6.898438 0.265625 5.640625 -0.0078125 4.578125 -0.5625 C 3.515625 -1.113281 2.695312 -1.9375 2.125 -3.03125 C 1.550781 -4.132812 1.265625 -5.472656 1.265625 -7.046875 C 1.265625 -8.648438 1.566406 -10 2.171875 -11.09375 C 2.773438 -12.195312 3.59375 -13.019531 4.625 -13.5625 C 5.65625 -14.101562 6.816406 -14.375 8.109375 -14.375 C 10.097656 -14.375 11.625 -13.84375 12.6875 -12.78125 C 13.75 -11.726562 14.28125 -10.175781 14.28125 -8.125 C 14.28125 -7.382812 14.253906 -6.8125 14.203125 -6.40625 Z M 10.890625 -8.546875 C 10.859375 -9.617188 10.609375 -10.398438 10.140625 -10.890625 C 9.679688 -11.378906 9.003906 -11.625 8.109375 -11.625 C 6.316406 -11.625 5.265625 -10.597656 4.953125 -8.546875 Z M 10.890625 -8.546875 "/></g></g></g><g fill="#ffffff" fill-opacity="1"><g transform="translate(109.420697, 23.275931)"><g><path d="M 9.734375 -3.359375 L 10.65625 -0.734375 C 10.269531 -0.421875 9.785156 -0.175781 9.203125 0 C 8.628906 0.175781 7.972656 0.265625 7.234375 0.265625 C 5.710938 0.265625 4.550781 -0.144531 3.75 -0.96875 C 2.957031 -1.800781 2.5625 -3.015625 2.5625 -4.609375 L 2.5625 -11.296875 L 0.421875 -11.296875 L 0.421875 -14.109375 L 2.5625 -14.109375 L 2.5625 -16.859375 L 6.109375 -17.4375 L 6.109375 -14.109375 L 10.109375 -14.109375 L 10.109375 -11.296875 L 6.109375 -11.296875 L 6.109375 -4.859375 C 6.109375 -4.160156 6.253906 -3.648438 6.546875 -3.328125 C 6.835938 -3.003906 7.257812 -2.84375 7.8125 -2.84375 C 8.445312 -2.84375 9 -3.015625 9.46875 -3.359375 Z M 9.734375 -3.359375 "/></g></g></g></svg>